<svg width="328" height="188" viewBox="0 0 328 188" fill="none" xmlns="http://www.w3.org/2000/svg">
<path d="M247.569 92.5243C247.569 134.49 212.883 168.509 170.095 168.509C127.306 168.509 92.6196 134.49 92.6196 92.5243C92.6196 50.559 127.306 16.5393 170.095 16.5393C212.883 16.5393 247.569 50.559 247.569 92.5243Z" fill="#4DD0F9" fill-opacity="0.76"/>
<path d="M222.738 53.5386C222.738 61.9042 215.178 68.6859 205.852 68.6859C196.527 68.6859 188.967 61.9042 188.967 53.5386C188.967 45.1729 196.527 38.3912 205.852 38.3912C215.178 38.3912 222.738 45.1729 222.738 53.5386Z" fill="#33FF7E"/>
<path d="M205.852 65.4578C205.852 80.4062 196.736 92.5243 185.49 92.5243C174.245 92.5243 165.128 80.4062 165.128 65.4578C165.128 50.5093 174.245 38.3912 185.49 38.3912C196.736 38.3912 205.852 50.5093 205.852 65.4578Z" fill="#33A0FF"/>
<path d="M217.848 146.089C207.089 156.467 192.038 158.318 184.231 150.224C176.424 142.13 178.817 127.156 189.576 116.778C200.335 106.4 215.385 104.549 223.193 112.643C231 120.737 228.607 135.711 217.848 146.089Z" fill="#33A0FF"/>
<path d="M198.899 128.034C198.899 136.399 191.339 143.181 182.014 143.181C172.688 143.181 165.128 136.399 165.128 128.034C165.128 119.668 172.688 112.886 182.014 112.886C191.339 112.886 198.899 119.668 198.899 128.034Z" fill="#33FF7E"/>
<rect x="67.539" y="1.38205" width="199.014" height="185.194" rx="42.8434" stroke="black" stroke-opacity="0.25" stroke-width="2.76409"/>
<g filter="url(#filter0_d_54_19)">
<path d="M41.0898 123.707C37.0805 123.707 33.696 122.9 30.9364 121.285C28.2288 119.619 26.172 116.755 24.7662 112.694C23.4124 108.58 22.7355 102.879 22.7355 95.5892C22.7355 88.2996 23.4124 82.624 24.7662 78.5626C26.12 74.4492 28.0986 71.5854 30.7021 69.9712C33.3576 68.305 36.5598 67.4719 40.3088 67.4719C43.0685 67.4719 45.5418 67.6281 47.7287 67.9405C49.9676 68.2529 51.6599 68.6174 52.8054 69.034V73.3297H43.433C41.2461 73.3297 39.2935 73.9805 37.5752 75.2823C35.8569 76.5319 34.5031 78.7709 33.5138 81.9992C32.5765 85.1754 32.1079 89.7054 32.1079 95.5892C32.1079 101.421 32.6026 105.951 33.5919 109.179C34.5812 112.408 35.9871 114.673 37.8095 115.974C39.6319 117.224 41.7667 117.849 44.214 117.849H53.5864V122.145C52.4409 122.509 50.7487 122.847 48.5097 123.16C46.3228 123.524 43.8495 123.707 41.0898 123.707ZM74.7171 123.707C71.0723 123.707 67.8961 122.847 65.1885 121.129C62.533 119.359 60.4502 116.417 58.9402 112.303C57.4823 108.19 56.7533 102.619 56.7533 95.5892C56.7533 88.5599 57.4823 83.0145 58.9402 78.9532C60.4502 74.8397 62.533 71.8978 65.1885 70.1274C67.8961 68.3571 71.0723 67.4719 74.7171 67.4719C78.362 67.4719 81.5122 68.3571 84.1677 70.1274C86.8753 71.8978 88.9581 74.8397 90.416 78.9532C91.926 83.0145 92.681 88.5599 92.681 95.5892C92.681 102.619 91.926 108.19 90.416 112.303C88.9581 116.417 86.8753 119.359 84.1677 121.129C81.5122 122.847 78.362 123.707 74.7171 123.707ZM74.7171 118.239C75.8106 118.239 76.852 117.901 77.8413 117.224C78.8827 116.495 79.7939 115.297 80.5749 113.631C81.408 111.965 82.0589 109.674 82.5275 106.758C83.0482 103.79 83.3086 100.067 83.3086 95.5892C83.3086 91.1113 83.0482 87.4144 82.5275 84.4985C82.0589 81.5306 81.408 79.2135 80.5749 77.5473C79.7939 75.8811 78.8827 74.7095 77.8413 74.0326C76.852 73.3037 75.8106 72.9392 74.7171 72.9392C73.6237 72.9392 72.5563 73.3037 71.5149 74.0326C70.5256 74.7095 69.6144 75.8811 68.7813 77.5473C68.0002 79.2135 67.3494 81.5306 66.8287 84.4985C66.3601 87.4144 66.1257 91.1113 66.1257 95.5892C66.1257 100.067 66.3601 103.79 66.8287 106.758C67.3494 109.674 68.0002 111.965 68.7813 113.631C69.6144 115.297 70.5256 116.495 71.5149 117.224C72.5563 117.901 73.6237 118.239 74.7171 118.239ZM101.648 122.926V68.2529H111.02V92.0746H125.079V68.2529H134.451V122.926H125.079V98.3229H111.02V122.926H101.648ZM161.363 123.707C157.719 123.707 154.542 122.847 151.835 121.129C149.179 119.359 147.096 116.417 145.586 112.303C144.129 108.19 143.4 102.619 143.4 95.5892C143.4 88.5599 144.129 83.0145 145.586 78.9532C147.096 74.8397 149.179 71.8978 151.835 70.1274C154.542 68.3571 157.719 67.4719 161.363 67.4719C165.008 67.4719 168.158 68.3571 170.814 70.1274C173.522 71.8978 175.604 74.8397 177.062 78.9532C178.572 83.0145 179.327 88.5599 179.327 95.5892C179.327 102.619 178.572 108.19 177.062 112.303C175.604 116.417 173.522 119.359 170.814 121.129C168.158 122.847 165.008 123.707 161.363 123.707ZM161.363 118.239C162.457 118.239 163.498 117.901 164.488 117.224C165.529 116.495 166.44 115.297 167.221 113.631C168.054 111.965 168.705 109.674 169.174 106.758C169.694 103.79 169.955 100.067 169.955 95.5892C169.955 91.1113 169.694 87.4144 169.174 84.4985C168.705 81.5306 168.054 79.2135 167.221 77.5473C166.44 75.8811 165.529 74.7095 164.488 74.0326C163.498 73.3037 162.457 72.9392 161.363 72.9392C160.27 72.9392 159.203 73.3037 158.161 74.0326C157.172 74.7095 156.261 75.8811 155.428 77.5473C154.647 79.2135 153.996 81.5306 153.475 84.4985C153.006 87.4144 152.772 91.1113 152.772 95.5892C152.772 100.067 153.006 103.79 153.475 106.758C153.996 109.674 154.647 111.965 155.428 113.631C156.261 115.297 157.172 116.495 158.161 117.224C159.203 117.901 160.27 118.239 161.363 118.239ZM182.473 122.926L196.531 68.2529H208.247L222.306 122.926H212.543L209.106 109.257H195.672L192.236 122.926H182.473ZM196.922 103.009H207.778L202.545 80.7495H202.233L196.922 103.009ZM228.948 122.926V69.034C230.926 68.4612 232.957 68.0707 235.04 67.8624C237.174 67.6021 239.7 67.4719 242.616 67.4719C246.937 67.4719 250.426 68.1228 253.082 69.4245C255.789 70.6742 257.768 72.6788 259.017 75.4385C260.319 78.1982 260.97 81.7909 260.97 86.2168C260.97 89.7054 260.606 92.5953 259.877 94.8863C259.148 97.1253 258.132 98.9217 256.831 100.275C255.581 101.577 254.097 102.619 252.379 103.4L262.923 122.926H252.379L243.397 105.352H238.32V122.926H228.948ZM238.32 99.1039H242.616C245.532 99.1039 247.745 98.1927 249.255 96.3703C250.817 94.4958 251.598 91.1113 251.598 86.2168C251.598 82.9364 251.259 80.359 250.582 78.4845C249.905 76.61 248.89 75.2823 247.536 74.5012C246.234 73.7202 244.594 73.3297 242.616 73.3297H238.32V99.1039ZM284.413 123.707C281.497 123.707 278.972 123.576 276.837 123.316C274.755 123.108 272.724 122.717 270.745 122.145V69.034C272.724 68.4612 274.755 68.0707 276.837 67.8624C278.972 67.6021 281.497 67.4719 284.413 67.4719C288.735 67.4719 292.354 68.3571 295.27 70.1274C298.238 71.8978 300.477 74.8397 301.987 78.9532C303.549 83.0145 304.33 88.5599 304.33 95.5892C304.33 102.619 303.549 108.19 301.987 112.303C300.477 116.417 298.238 119.359 295.27 121.129C292.354 122.847 288.735 123.707 284.413 123.707ZM280.118 117.849H284.413C286.496 117.849 288.319 117.224 289.881 115.974C291.495 114.673 292.744 112.408 293.63 109.179C294.515 105.951 294.957 101.421 294.957 95.5892C294.957 89.7054 294.515 85.1754 293.63 81.9992C292.744 78.7709 291.495 76.5319 289.881 75.2823C288.319 73.9805 286.496 73.3297 284.413 73.3297H280.118V117.849Z" fill="white"/>
</g>
<defs>
<filter id="filter0_d_54_19" x="22.7356" y="67.4719" width="290.747" height="61.7263" filterUnits="userSpaceOnUse" color-interpolation-filters="sRGB">
<feFlood flood-opacity="0" result="BackgroundImageFix"/>
<feColorMatrix in="SourceAlpha" type="matrix" values="0 0 0 0 0 0 0 0 0 0 0 0 0 0 0 0 0 0 127 0" result="hardAlpha"/>
<feOffset dx="6.71204" dy="3.05093"/>
<feGaussianBlur stdDeviation="1.22037"/>
<feComposite in2="hardAlpha" operator="out"/>
<feColorMatrix type="matrix" values="0 0 0 0 0 0 0 0 0 0 0 0 0 0 0 0 0 0 0.25 0"/>
<feBlend mode="normal" in2="BackgroundImageFix" result="effect1_dropShadow_54_19"/>
<feBlend mode="normal" in="SourceGraphic" in2="effect1_dropShadow_54_19" result="shape"/>
</filter>
</defs>
</svg>
